<?xml version="1.0" encoding="UTF-8"?>
<svg viewBox="0 0 960 600" xmlns="http://www.w3.org/2000/svg" role="img" aria-label="Global architecture block diagram">
  <text x="40" y="26" class="eye">EC / BOOT</text>
  <rect x="40" y="40" width="230" height="110" class="blk"/>
  <text x="155" y="62" class="t">RP2354B — EC</text>
  <text x="56" y="84" class="li">USB-C power · UART console</text>
  <text x="56" y="100" class="li">USB host + on-board hub</text>
  <text x="56" y="116" class="li">2 MB flash · SSPI · batt.</text>
  <text x="56" y="136" class="li">rail sequencing</text>

  <rect x="300" y="40" width="130" height="60" class="blk"/>
  <text x="365" y="64" class="t">microSD</text>
  <text x="365" y="84" class="s">FAT · BIOS / KERNEL</text>
  <rect x="450" y="40" width="130" height="60" class="blk"/>
  <text x="515" y="64" class="t">'3257 mux</text>
  <text x="515" y="84" class="s">SPI handoff</text>
  <line x1="270" y1="70" x2="300" y2="70" class="dt"/>
  <line x1="430" y1="70" x2="450" y2="70" class="dt"/>
  <line x1="515" y1="100" x2="515" y2="186" class="dt"/>
  <text x="549" y="130" class="lbl">SPI-SD</text>

  <polyline points="270,140 280,140 280,160 460,160 460,186" class="op"/>
  <text x="452" y="152" class="plbl">CFG SSPI ×3 · CDONE</text>
  <line x1="140" y1="150" x2="140" y2="186" class="op"/>
  <text x="172" y="170" class="plbl">RESB</text>

  <rect x="40" y="186" width="170" height="90" class="blk"/>
  <text x="125" y="208" class="t">W65C816S</text>
  <text x="125" y="228" class="s">PLCC-44 · 24-bit native</text>
  <text x="125" y="244" class="s">PHI2 8 MHz · BE</text>
  <rect x="40" y="292" width="170" height="70" class="blk opt"/>
  <text x="125" y="316" class="t">Argon — FPGA-C (opt.)</text>
  <text x="125" y="336" class="s">softcore 65816 · BE=0</text>

  <text x="250" y="176" class="lbl">SHARED A/D/CTRL BUS</text>
  <line x1="250" y1="211" x2="250" y2="448" class="dtb"/>
  <line x1="210" y1="231" x2="250" y2="231" class="dtb"/>
  <line x1="210" y1="327" x2="250" y2="327" class="dts"/>
  <line x1="250" y1="267" x2="290" y2="267" class="dtb"/>
  <line x1="250" y1="448" x2="290" y2="448" class="dtb"/>
  <text x="222" y="464" class="lbl">$FE · VRAM_SEL</text>

  <rect x="290" y="186" width="300" height="162" class="blk"/>
  <text x="440" y="210" class="t">HELIUM — NORTHBRIDGE (FPGA-A)</text>
  <text x="306" y="234" class="li">MMU · TLB ASID · walker HW</text>
  <text x="306" y="252" class="li">768 KB cache · 2 KB lines · 4-way</text>
  <text x="306" y="270" class="li">bus arbiter · PHI2 · timer</text>
  <text x="306" y="288" class="li">PIC priorities · UART · SPI-SD</text>
  <text x="306" y="306" class="li">I2C (RTC · gauge · GT911) · dbg</text>
  <text x="440" y="336" class="s">iCE40HX8K TQ144 · 90/107 pins</text>

  <line x1="590" y1="267" x2="615" y2="267" class="dtb"/>
  <line x1="615" y1="87" x2="615" y2="267" class="dtb"/>
  <line x1="615" y1="87" x2="640" y2="87" class="dtb"/>
  <line x1="615" y1="185" x2="640" y2="185" class="dtb"/>

  <text x="640" y="26" class="eye">MEMORY</text>
  <rect x="640" y="40" width="280" height="94" class="blk"/>
  <text x="780" y="62" class="t">SRAM 1 MB ×8 · 10 ns</text>
  <text x="656" y="84" class="li">256 KB pinned: kernel · tables · $00</text>
  <text x="656" y="100" class="li">768 KB cache · 4-way · tags in EBR</text>
  <text x="656" y="116" class="li">D0–D7 + A0–A10 on the CPU nets</text>
  <rect x="640" y="148" width="280" height="74" class="blk"/>
  <text x="780" y="170" class="t">SDRAM 64 MB</text>
  <text x="656" y="192" class="li">32,768 frames of 2 KB</text>
  <text x="656" y="208" class="li">AS4C32M16SB · backing store</text>

  <rect x="290" y="380" width="300" height="136" class="blk"/>
  <text x="440" y="404" class="t">NEON — VIDEO · AUDIO (FPGA-B)</text>
  <text x="306" y="428" class="li">RGB-TTL 1024×600 (px-doubling)</text>
  <text x="306" y="446" class="li">64 KB VRAM window at $FE</text>
  <text x="306" y="464" class="li">I2S → PCM5102A · VGA R-2R</text>
  <text x="306" y="482" class="li">IRQ VSYNC</text>
  <text x="440" y="506" class="s">iCE40 TQ144 · ~79 pins</text>

  <text x="640" y="294" class="eye">NEON · LOCAL</text>
  <polyline points="590,390 605,390 605,330 640,330" class="dt"/>
  <rect x="640" y="304" width="280" height="52" class="blk"/>
  <text x="780" y="326" class="t">SDRAM 64 MB (AS4C32M16SB)</text>
  <text x="780" y="346" class="s">chip RAM: framebuffer + audio</text>

  <line x1="590" y1="415" x2="640" y2="415" class="dt"/>
  <text x="615" y="408" class="lbl">RGB-TTL</text>
  <text x="615" y="430" class="lbl">51.2 MHz</text>
  <rect x="640" y="380" width="280" height="70" class="blk"/>
  <text x="780" y="402" class="t">10.1&#8221; IPS PANEL</text>
  <text x="780" y="422" class="s">ER-TFT101-1 · HX8282 · FPC-50</text>
  <text x="780" y="438" class="s">GT911 capacitive → I2C + INT</text>

  <line x1="590" y1="492" x2="640" y2="492" class="dt"/>
  <text x="615" y="485" class="lbl">I2S</text>
  <rect x="640" y="466" width="280" height="52" class="blk"/>
  <text x="780" y="488" class="t">PCM5102A</text>
  <text x="780" y="508" class="s">I2S → audio jack</text>

  <polyline points="590,502 605,502 605,554 640,554" class="dts"/>
  <rect x="640" y="534" width="280" height="40" class="blk opt"/>
  <text x="780" y="559" class="s">VGA (R-2R) — bring-up</text>
</svg>
